<?xml version="1.0" encoding="UTF-8"?>
<!DOCTYPE svg PUBLIC "-//W3C//DTD SVG 1.1//EN" "http://www.w3.org/Graphics/SVG/1.1/DTD/svg11.dtd">
<!-- Creator: CorelDRAW X7 -->
<svg xmlns="http://www.w3.org/2000/svg" xml:space="preserve" width="2550px" height="3300px" version="1.1" style="shape-rendering:geometricPrecision; text-rendering:geometricPrecision; image-rendering:optimizeQuality; fill-rule:evenodd; clip-rule:evenodd"
viewBox="0 0 2550 3300"
 xmlns:xlink="http://www.w3.org/1999/xlink">
 <defs>
  <style type="text/css">
   <![CDATA[
    .fil1 {fill:#00AFEF}
    .fil0 {fill:#00AFEF;fill-rule:nonzero}
   ]]>
  </style>
 </defs>
 <g id="Layer_x0020_1">
  <metadata id="CorelCorpID_0Corel-Layer"/>
  <path class="fil0" d="M1104 1605c-10,-22 -22,-40 -38,-56 -16,-15 -34,-28 -55,-37 -21,-9 -43,-14 -67,-14l-115 0 58 58 57 0c16,0 31,3 45,9 13,6 26,14 36,25 11,11 19,23 25,37 6,14 10,29 10,44 0,16 -4,30 -10,45 -6,14 -14,26 -24,36 -11,11 -23,19 -37,26 -14,5 -29,8 -45,8l-57 0 -58 58 115 0c24,0 46,-5 67,-14 21,-9 40,-21 55,-37 16,-16 28,-34 38,-55 9,-21 13,-43 13,-67 0,-24 -4,-46 -13,-66z"/>
  <path id="1" class="fil0" d="M1332 1729l0 0 51 -102 50 102 65 0 -115 -231 -173 346 64 0 29 -58 29 -57zm195 58l-64 0 0 0 28 57 65 0 -29 -57z"/>
  <path id="2" class="fil0" d="M1803 1556l118 -58 0 0 -344 0 0 58 226 0zm-108 230l0 0 -118 58 346 0 0 -58 -228 0z"/>
  <path id="3" class="fil0" d="M2116 1498c-48,0 -89,17 -122,51 -34,34 -51,75 -51,122 0,48 17,88 51,122 33,34 74,51 122,51 48,0 88,-17 122,-51 34,-33 51,-74 51,-122 0,-47 -17,-88 -51,-122 -34,-34 -74,-51 -122,-51zm0 58c31,0 59,11 81,34 23,22 34,50 34,81 0,32 -11,59 -34,82 -22,22 -50,33 -81,33 -32,0 -60,-11 -82,-33 -23,-23 -33,-50 -33,-82 0,-31 10,-59 33,-81 23,-23 50,-34 82,-34z"/>
  <path class="fil1" d="M709 1388l-465 0c-42,0 -76,35 -76,78l0 387c0,43 34,78 76,78l465 0c43,0 78,-35 78,-78l0 -387c0,-43 -34,-78 -78,-78zm-407 78c32,0 58,26 58,58 0,32 -25,58 -58,58 -33,0 -58,-26 -58,-58 0,-32 27,-58 58,-58zm406 377c-3,6 -10,10 -17,10l-424 0c-7,0 -14,-4 -17,-10 -4,-7 -3,-15 1,-21l85 -116c4,-5 10,-8 16,-8 6,0 12,3 15,8l40 54 113 -168c3,-7 9,-10 16,-10 6,0 12,3 16,9l155 232c4,6 4,14 1,20z"/>
 </g>
</svg>
